<svg xmlns="http://www.w3.org/2000/svg" viewBox="0 0 200 280"><rect width="200" height="280" fill="#d9ad4f"/><g transform="rotate(45 100 140)"><rect x="-240" y="-240" width="30" height="30" fill="#d9ad4f"/><rect x="-210" y="-240" width="30" height="30" fill="#8c1a2b"/><path d="M-205 -227h8v-8h4v8h8v4h-8v8h-4v-8h-8z" fill="#f1d58a"/><rect x="-180" y="-240" width="30" height="30" fill="#d9ad4f"/><rect x="-150" y="-240" width="30" height="30" fill="#8c1a2b"/><path d="M-145 -227h8v-8h4v8h8v4h-8v8h-4v-8h-8z" fill="#f1d58a"/><rect x="-120" y="-240" width="30" height="30" fill="#d9ad4f"/><rect x="-90" y="-240" width="30" height="30" fill="#8c1a2b"/><path d="M-85 -227h8v-8h4v8h8v4h-8v8h-4v-8h-8z" fill="#f1d58a"/><rect x="-60" y="-240" width="30" height="30" fill="#d9ad4f"/><rect x="-30" y="-240" width="30" height="30" fill="#8c1a2b"/><path d="M-25 -227h8v-8h4v8h8v4h-8v8h-4v-8h-8z" fill="#f1d58a"/><rect x="0" y="-240" width="30" height="30" fill="#d9ad4f"/><rect x="30" y="-240" width="30" height="30" fill="#8c1a2b"/><path d="M35 -227h8v-8h4v8h8v4h-8v8h-4v-8h-8z" fill="#f1d58a"/><rect x="60" y="-240" width="30" height="30" fill="#d9ad4f"/><rect x="90" y="-240" width="30" height="30" fill="#8c1a2b"/><path d="M95 -227h8v-8h4v8h8v4h-8v8h-4v-8h-8z" fill="#f1d58a"/><rect x="120" y="-240" width="30" height="30" fill="#d9ad4f"/><rect x="150" y="-240" width="30" height="30" fill="#8c1a2b"/><path d="M155 -227h8v-8h4v8h8v4h-8v8h-4v-8h-8z" fill="#f1d58a"/><rect x="180" y="-240" width="30" height="30" fill="#d9ad4f"/><rect x="210" y="-240" width="30" height="30" fill="#8c1a2b"/><path d="M215 -227h8v-8h4v8h8v4h-8v8h-4v-8h-8z" fill="#f1d58a"/><rect x="240" y="-240" width="30" height="30" fill="#d9ad4f"/><rect x="270" y="-240" width="30" height="30" fill="#8c1a2b"/><path d="M275 -227h8v-8h4v8h8v4h-8v8h-4v-8h-8z" fill="#f1d58a"/><rect x="-240" y="-210" width="30" height="30" fill="#8c1a2b"/><path d="M-235 -197h8v-8h4v8h8v4h-8v8h-4v-8h-8z" fill="#f1d58a"/><rect x="-210" y="-210" width="30" height="30" fill="#d9ad4f"/><rect x="-180" y="-210" width="30" height="30" fill="#8c1a2b"/><path d="M-175 -197h8v-8h4v8h8v4h-8v8h-4v-8h-8z" fill="#f1d58a"/><rect x="-150" y="-210" width="30" height="30" fill="#d9ad4f"/><rect x="-120" y="-210" width="30" height="30" fill="#8c1a2b"/><path d="M-115 -197h8v-8h4v8h8v4h-8v8h-4v-8h-8z" fill="#f1d58a"/><rect x="-90" y="-210" width="30" height="30" fill="#d9ad4f"/><rect x="-60" y="-210" width="30" height="30" fill="#8c1a2b"/><path d="M-55 -197h8v-8h4v8h8v4h-8v8h-4v-8h-8z" fill="#f1d58a"/><rect x="-30" y="-210" width="30" height="30" fill="#d9ad4f"/><rect x="0" y="-210" width="30" height="30" fill="#8c1a2b"/><path d="M5 -197h8v-8h4v8h8v4h-8v8h-4v-8h-8z" fill="#f1d58a"/><rect x="30" y="-210" width="30" height="30" fill="#d9ad4f"/><rect x="60" y="-210" width="30" height="30" fill="#8c1a2b"/><path d="M65 -197h8v-8h4v8h8v4h-8v8h-4v-8h-8z" fill="#f1d58a"/><rect x="90" y="-210" width="30" height="30" fill="#d9ad4f"/><rect x="120" y="-210" width="30" height="30" fill="#8c1a2b"/><path d="M125 -197h8v-8h4v8h8v4h-8v8h-4v-8h-8z" fill="#f1d58a"/><rect x="150" y="-210" width="30" height="30" fill="#d9ad4f"/><rect x="180" y="-210" width="30" height="30" fill="#8c1a2b"/><path d="M185 -197h8v-8h4v8h8v4h-8v8h-4v-8h-8z" fill="#f1d58a"/><rect x="210" y="-210" width="30" height="30" fill="#d9ad4f"/><rect x="240" y="-210" width="30" height="30" fill="#8c1a2b"/><path d="M245 -197h8v-8h4v8h8v4h-8v8h-4v-8h-8z" fill="#f1d58a"/><rect x="270" y="-210" width="30" height="30" fill="#d9ad4f"/><rect x="-240" y="-180" width="30" height="30" fill="#d9ad4f"/><rect x="-210" y="-180" width="30" height="30" fill="#8c1a2b"/><path d="M-205 -167h8v-8h4v8h8v4h-8v8h-4v-8h-8z" fill="#f1d58a"/><rect x="-180" y="-180" width="30" height="30" fill="#d9ad4f"/><rect x="-150" y="-180" width="30" height="30" fill="#8c1a2b"/><path d="M-145 -167h8v-8h4v8h8v4h-8v8h-4v-8h-8z" fill="#f1d58a"/><rect x="-120" y="-180" width="30" height="30" fill="#d9ad4f"/><rect x="-90" y="-180" width="30" height="30" fill="#8c1a2b"/><path d="M-85 -167h8v-8h4v8h8v4h-8v8h-4v-8h-8z" fill="#f1d58a"/><rect x="-60" y="-180" width="30" height="30" fill="#d9ad4f"/><rect x="-30" y="-180" width="30" height="30" fill="#8c1a2b"/><path d="M-25 -167h8v-8h4v8h8v4h-8v8h-4v-8h-8z" fill="#f1d58a"/><rect x="0" y="-180" width="30" height="30" fill="#d9ad4f"/><rect x="30" y="-180" width="30" height="30" fill="#8c1a2b"/><path d="M35 -167h8v-8h4v8h8v4h-8v8h-4v-8h-8z" fill="#f1d58a"/><rect x="60" y="-180" width="30" height="30" fill="#d9ad4f"/><rect x="90" y="-180" width="30" height="30" fill="#8c1a2b"/><path d="M95 -167h8v-8h4v8h8v4h-8v8h-4v-8h-8z" fill="#f1d58a"/><rect x="120" y="-180" width="30" height="30" fill="#d9ad4f"/><rect x="150" y="-180" width="30" height="30" fill="#8c1a2b"/><path d="M155 -167h8v-8h4v8h8v4h-8v8h-4v-8h-8z" fill="#f1d58a"/><rect x="180" y="-180" width="30" height="30" fill="#d9ad4f"/><rect x="210" y="-180" width="30" height="30" fill="#8c1a2b"/><path d="M215 -167h8v-8h4v8h8v4h-8v8h-4v-8h-8z" fill="#f1d58a"/><rect x="240" y="-180" width="30" height="30" fill="#d9ad4f"/><rect x="270" y="-180" width="30" height="30" fill="#8c1a2b"/><path d="M275 -167h8v-8h4v8h8v4h-8v8h-4v-8h-8z" fill="#f1d58a"/><rect x="-240" y="-150" width="30" height="30" fill="#8c1a2b"/><path d="M-235 -137h8v-8h4v8h8v4h-8v8h-4v-8h-8z" fill="#f1d58a"/><rect x="-210" y="-150" width="30" height="30" fill="#d9ad4f"/><rect x="-180" y="-150" width="30" height="30" fill="#8c1a2b"/><path d="M-175 -137h8v-8h4v8h8v4h-8v8h-4v-8h-8z" fill="#f1d58a"/><rect x="-150" y="-150" width="30" height="30" fill="#d9ad4f"/><rect x="-120" y="-150" width="30" height="30" fill="#8c1a2b"/><path d="M-115 -137h8v-8h4v8h8v4h-8v8h-4v-8h-8z" fill="#f1d58a"/><rect x="-90" y="-150" width="30" height="30" fill="#d9ad4f"/><rect x="-60" y="-150" width="30" height="30" fill="#8c1a2b"/><path d="M-55 -137h8v-8h4v8h8v4h-8v8h-4v-8h-8z" fill="#f1d58a"/><rect x="-30" y="-150" width="30" height="30" fill="#d9ad4f"/><rect x="0" y="-150" width="30" height="30" fill="#8c1a2b"/><path d="M5 -137h8v-8h4v8h8v4h-8v8h-4v-8h-8z" fill="#f1d58a"/><rect x="30" y="-150" width="30" height="30" fill="#d9ad4f"/><rect x="60" y="-150" width="30" height="30" fill="#8c1a2b"/><path d="M65 -137h8v-8h4v8h8v4h-8v8h-4v-8h-8z" fill="#f1d58a"/><rect x="90" y="-150" width="30" height="30" fill="#d9ad4f"/><rect x="120" y="-150" width="30" height="30" fill="#8c1a2b"/><path d="M125 -137h8v-8h4v8h8v4h-8v8h-4v-8h-8z" fill="#f1d58a"/><rect x="150" y="-150" width="30" height="30" fill="#d9ad4f"/><rect x="180" y="-150" width="30" height="30" fill="#8c1a2b"/><path d="M185 -137h8v-8h4v8h8v4h-8v8h-4v-8h-8z" fill="#f1d58a"/><rect x="210" y="-150" width="30" height="30" fill="#d9ad4f"/><rect x="240" y="-150" width="30" height="30" fill="#8c1a2b"/><path d="M245 -137h8v-8h4v8h8v4h-8v8h-4v-8h-8z" fill="#f1d58a"/><rect x="270" y="-150" width="30" height="30" fill="#d9ad4f"/><rect x="-240" y="-120" width="30" height="30" fill="#d9ad4f"/><rect x="-210" y="-120" width="30" height="30" fill="#8c1a2b"/><path d="M-205 -107h8v-8h4v8h8v4h-8v8h-4v-8h-8z" fill="#f1d58a"/><rect x="-180" y="-120" width="30" height="30" fill="#d9ad4f"/><rect x="-150" y="-120" width="30" height="30" fill="#8c1a2b"/><path d="M-145 -107h8v-8h4v8h8v4h-8v8h-4v-8h-8z" fill="#f1d58a"/><rect x="-120" y="-120" width="30" height="30" fill="#d9ad4f"/><rect x="-90" y="-120" width="30" height="30" fill="#8c1a2b"/><path d="M-85 -107h8v-8h4v8h8v4h-8v8h-4v-8h-8z" fill="#f1d58a"/><rect x="-60" y="-120" width="30" height="30" fill="#d9ad4f"/><rect x="-30" y="-120" width="30" height="30" fill="#8c1a2b"/><path d="M-25 -107h8v-8h4v8h8v4h-8v8h-4v-8h-8z" fill="#f1d58a"/><rect x="0" y="-120" width="30" height="30" fill="#d9ad4f"/><rect x="30" y="-120" width="30" height="30" fill="#8c1a2b"/><path d="M35 -107h8v-8h4v8h8v4h-8v8h-4v-8h-8z" fill="#f1d58a"/><rect x="60" y="-120" width="30" height="30" fill="#d9ad4f"/><rect x="90" y="-120" width="30" height="30" fill="#8c1a2b"/><path d="M95 -107h8v-8h4v8h8v4h-8v8h-4v-8h-8z" fill="#f1d58a"/><rect x="120" y="-120" width="30" height="30" fill="#d9ad4f"/><rect x="150" y="-120" width="30" height="30" fill="#8c1a2b"/><path d="M155 -107h8v-8h4v8h8v4h-8v8h-4v-8h-8z" fill="#f1d58a"/><rect x="180" y="-120" width="30" height="30" fill="#d9ad4f"/><rect x="210" y="-120" width="30" height="30" fill="#8c1a2b"/><path d="M215 -107h8v-8h4v8h8v4h-8v8h-4v-8h-8z" fill="#f1d58a"/><rect x="240" y="-120" width="30" height="30" fill="#d9ad4f"/><rect x="270" y="-120" width="30" height="30" fill="#8c1a2b"/><path d="M275 -107h8v-8h4v8h8v4h-8v8h-4v-8h-8z" fill="#f1d58a"/><rect x="-240" y="-90" width="30" height="30" fill="#8c1a2b"/><path d="M-235 -77h8v-8h4v8h8v4h-8v8h-4v-8h-8z" fill="#f1d58a"/><rect x="-210" y="-90" width="30" height="30" fill="#d9ad4f"/><rect x="-180" y="-90" width="30" height="30" fill="#8c1a2b"/><path d="M-175 -77h8v-8h4v8h8v4h-8v8h-4v-8h-8z" fill="#f1d58a"/><rect x="-150" y="-90" width="30" height="30" fill="#d9ad4f"/><rect x="-120" y="-90" width="30" height="30" fill="#8c1a2b"/><path d="M-115 -77h8v-8h4v8h8v4h-8v8h-4v-8h-8z" fill="#f1d58a"/><rect x="-90" y="-90" width="30" height="30" fill="#d9ad4f"/><rect x="-60" y="-90" width="30" height="30" fill="#8c1a2b"/><path d="M-55 -77h8v-8h4v8h8v4h-8v8h-4v-8h-8z" fill="#f1d58a"/><rect x="-30" y="-90" width="30" height="30" fill="#d9ad4f"/><rect x="0" y="-90" width="30" height="30" fill="#8c1a2b"/><path d="M5 -77h8v-8h4v8h8v4h-8v8h-4v-8h-8z" fill="#f1d58a"/><rect x="30" y="-90" width="30" height="30" fill="#d9ad4f"/><rect x="60" y="-90" width="30" height="30" fill="#8c1a2b"/><path d="M65 -77h8v-8h4v8h8v4h-8v8h-4v-8h-8z" fill="#f1d58a"/><rect x="90" y="-90" width="30" height="30" fill="#d9ad4f"/><rect x="120" y="-90" width="30" height="30" fill="#8c1a2b"/><path d="M125 -77h8v-8h4v8h8v4h-8v8h-4v-8h-8z" fill="#f1d58a"/><rect x="150" y="-90" width="30" height="30" fill="#d9ad4f"/><rect x="180" y="-90" width="30" height="30" fill="#8c1a2b"/><path d="M185 -77h8v-8h4v8h8v4h-8v8h-4v-8h-8z" fill="#f1d58a"/><rect x="210" y="-90" width="30" height="30" fill="#d9ad4f"/><rect x="240" y="-90" width="30" height="30" fill="#8c1a2b"/><path d="M245 -77h8v-8h4v8h8v4h-8v8h-4v-8h-8z" fill="#f1d58a"/><rect x="270" y="-90" width="30" height="30" fill="#d9ad4f"/><rect x="-240" y="-60" width="30" height="30" fill="#d9ad4f"/><rect x="-210" y="-60" width="30" height="30" fill="#8c1a2b"/><path d="M-205 -47h8v-8h4v8h8v4h-8v8h-4v-8h-8z" fill="#f1d58a"/><rect x="-180" y="-60" width="30" height="30" fill="#d9ad4f"/><rect x="-150" y="-60" width="30" height="30" fill="#8c1a2b"/><path d="M-145 -47h8v-8h4v8h8v4h-8v8h-4v-8h-8z" fill="#f1d58a"/><rect x="-120" y="-60" width="30" height="30" fill="#d9ad4f"/><rect x="-90" y="-60" width="30" height="30" fill="#8c1a2b"/><path d="M-85 -47h8v-8h4v8h8v4h-8v8h-4v-8h-8z" fill="#f1d58a"/><rect x="-60" y="-60" width="30" height="30" fill="#d9ad4f"/><rect x="-30" y="-60" width="30" height="30" fill="#8c1a2b"/><path d="M-25 -47h8v-8h4v8h8v4h-8v8h-4v-8h-8z" fill="#f1d58a"/><rect x="0" y="-60" width="30" height="30" fill="#d9ad4f"/><rect x="30" y="-60" width="30" height="30" fill="#8c1a2b"/><path d="M35 -47h8v-8h4v8h8v4h-8v8h-4v-8h-8z" fill="#f1d58a"/><rect x="60" y="-60" width="30" height="30" fill="#d9ad4f"/><rect x="90" y="-60" width="30" height="30" fill="#8c1a2b"/><path d="M95 -47h8v-8h4v8h8v4h-8v8h-4v-8h-8z" fill="#f1d58a"/><rect x="120" y="-60" width="30" height="30" fill="#d9ad4f"/><rect x="150" y="-60" width="30" height="30" fill="#8c1a2b"/><path d="M155 -47h8v-8h4v8h8v4h-8v8h-4v-8h-8z" fill="#f1d58a"/><rect x="180" y="-60" width="30" height="30" fill="#d9ad4f"/><rect x="210" y="-60" width="30" height="30" fill="#8c1a2b"/><path d="M215 -47h8v-8h4v8h8v4h-8v8h-4v-8h-8z" fill="#f1d58a"/><rect x="240" y="-60" width="30" height="30" fill="#d9ad4f"/><rect x="270" y="-60" width="30" height="30" fill="#8c1a2b"/><path d="M275 -47h8v-8h4v8h8v4h-8v8h-4v-8h-8z" fill="#f1d58a"/><rect x="-240" y="-30" width="30" height="30" fill="#8c1a2b"/><path d="M-235 -17h8v-8h4v8h8v4h-8v8h-4v-8h-8z" fill="#f1d58a"/><rect x="-210" y="-30" width="30" height="30" fill="#d9ad4f"/><rect x="-180" y="-30" width="30" height="30" fill="#8c1a2b"/><path d="M-175 -17h8v-8h4v8h8v4h-8v8h-4v-8h-8z" fill="#f1d58a"/><rect x="-150" y="-30" width="30" height="30" fill="#d9ad4f"/><rect x="-120" y="-30" width="30" height="30" fill="#8c1a2b"/><path d="M-115 -17h8v-8h4v8h8v4h-8v8h-4v-8h-8z" fill="#f1d58a"/><rect x="-90" y="-30" width="30" height="30" fill="#d9ad4f"/><rect x="-60" y="-30" width="30" height="30" fill="#8c1a2b"/><path d="M-55 -17h8v-8h4v8h8v4h-8v8h-4v-8h-8z" fill="#f1d58a"/><rect x="-30" y="-30" width="30" height="30" fill="#d9ad4f"/><rect x="0" y="-30" width="30" height="30" fill="#8c1a2b"/><path d="M5 -17h8v-8h4v8h8v4h-8v8h-4v-8h-8z" fill="#f1d58a"/><rect x="30" y="-30" width="30" height="30" fill="#d9ad4f"/><rect x="60" y="-30" width="30" height="30" fill="#8c1a2b"/><path d="M65 -17h8v-8h4v8h8v4h-8v8h-4v-8h-8z" fill="#f1d58a"/><rect x="90" y="-30" width="30" height="30" fill="#d9ad4f"/><rect x="120" y="-30" width="30" height="30" fill="#8c1a2b"/><path d="M125 -17h8v-8h4v8h8v4h-8v8h-4v-8h-8z" fill="#f1d58a"/><rect x="150" y="-30" width="30" height="30" fill="#d9ad4f"/><rect x="180" y="-30" width="30" height="30" fill="#8c1a2b"/><path d="M185 -17h8v-8h4v8h8v4h-8v8h-4v-8h-8z" fill="#f1d58a"/><rect x="210" y="-30" width="30" height="30" fill="#d9ad4f"/><rect x="240" y="-30" width="30" height="30" fill="#8c1a2b"/><path d="M245 -17h8v-8h4v8h8v4h-8v8h-4v-8h-8z" fill="#f1d58a"/><rect x="270" y="-30" width="30" height="30" fill="#d9ad4f"/><rect x="-240" y="0" width="30" height="30" fill="#d9ad4f"/><rect x="-210" y="0" width="30" height="30" fill="#8c1a2b"/><path d="M-205 13h8v-8h4v8h8v4h-8v8h-4v-8h-8z" fill="#f1d58a"/><rect x="-180" y="0" width="30" height="30" fill="#d9ad4f"/><rect x="-150" y="0" width="30" height="30" fill="#8c1a2b"/><path d="M-145 13h8v-8h4v8h8v4h-8v8h-4v-8h-8z" fill="#f1d58a"/><rect x="-120" y="0" width="30" height="30" fill="#d9ad4f"/><rect x="-90" y="0" width="30" height="30" fill="#8c1a2b"/><path d="M-85 13h8v-8h4v8h8v4h-8v8h-4v-8h-8z" fill="#f1d58a"/><rect x="-60" y="0" width="30" height="30" fill="#d9ad4f"/><rect x="-30" y="0" width="30" height="30" fill="#8c1a2b"/><path d="M-25 13h8v-8h4v8h8v4h-8v8h-4v-8h-8z" fill="#f1d58a"/><rect x="0" y="0" width="30" height="30" fill="#d9ad4f"/><rect x="30" y="0" width="30" height="30" fill="#8c1a2b"/><path d="M35 13h8v-8h4v8h8v4h-8v8h-4v-8h-8z" fill="#f1d58a"/><rect x="60" y="0" width="30" height="30" fill="#d9ad4f"/><rect x="90" y="0" width="30" height="30" fill="#8c1a2b"/><path d="M95 13h8v-8h4v8h8v4h-8v8h-4v-8h-8z" fill="#f1d58a"/><rect x="120" y="0" width="30" height="30" fill="#d9ad4f"/><rect x="150" y="0" width="30" height="30" fill="#8c1a2b"/><path d="M155 13h8v-8h4v8h8v4h-8v8h-4v-8h-8z" fill="#f1d58a"/><rect x="180" y="0" width="30" height="30" fill="#d9ad4f"/><rect x="210" y="0" width="30" height="30" fill="#8c1a2b"/><path d="M215 13h8v-8h4v8h8v4h-8v8h-4v-8h-8z" fill="#f1d58a"/><rect x="240" y="0" width="30" height="30" fill="#d9ad4f"/><rect x="270" y="0" width="30" height="30" fill="#8c1a2b"/><path d="M275 13h8v-8h4v8h8v4h-8v8h-4v-8h-8z" fill="#f1d58a"/><rect x="-240" y="30" width="30" height="30" fill="#8c1a2b"/><path d="M-235 43h8v-8h4v8h8v4h-8v8h-4v-8h-8z" fill="#f1d58a"/><rect x="-210" y="30" width="30" height="30" fill="#d9ad4f"/><rect x="-180" y="30" width="30" height="30" fill="#8c1a2b"/><path d="M-175 43h8v-8h4v8h8v4h-8v8h-4v-8h-8z" fill="#f1d58a"/><rect x="-150" y="30" width="30" height="30" fill="#d9ad4f"/><rect x="-120" y="30" width="30" height="30" fill="#8c1a2b"/><path d="M-115 43h8v-8h4v8h8v4h-8v8h-4v-8h-8z" fill="#f1d58a"/><rect x="-90" y="30" width="30" height="30" fill="#d9ad4f"/><rect x="-60" y="30" width="30" height="30" fill="#8c1a2b"/><path d="M-55 43h8v-8h4v8h8v4h-8v8h-4v-8h-8z" fill="#f1d58a"/><rect x="-30" y="30" width="30" height="30" fill="#d9ad4f"/><rect x="0" y="30" width="30" height="30" fill="#8c1a2b"/><path d="M5 43h8v-8h4v8h8v4h-8v8h-4v-8h-8z" fill="#f1d58a"/><rect x="30" y="30" width="30" height="30" fill="#d9ad4f"/><rect x="60" y="30" width="30" height="30" fill="#8c1a2b"/><path d="M65 43h8v-8h4v8h8v4h-8v8h-4v-8h-8z" fill="#f1d58a"/><rect x="90" y="30" width="30" height="30" fill="#d9ad4f"/><rect x="120" y="30" width="30" height="30" fill="#8c1a2b"/><path d="M125 43h8v-8h4v8h8v4h-8v8h-4v-8h-8z" fill="#f1d58a"/><rect x="150" y="30" width="30" height="30" fill="#d9ad4f"/><rect x="180" y="30" width="30" height="30" fill="#8c1a2b"/><path d="M185 43h8v-8h4v8h8v4h-8v8h-4v-8h-8z" fill="#f1d58a"/><rect x="210" y="30" width="30" height="30" fill="#d9ad4f"/><rect x="240" y="30" width="30" height="30" fill="#8c1a2b"/><path d="M245 43h8v-8h4v8h8v4h-8v8h-4v-8h-8z" fill="#f1d58a"/><rect x="270" y="30" width="30" height="30" fill="#d9ad4f"/><rect x="-240" y="60" width="30" height="30" fill="#d9ad4f"/><rect x="-210" y="60" width="30" height="30" fill="#8c1a2b"/><path d="M-205 73h8v-8h4v8h8v4h-8v8h-4v-8h-8z" fill="#f1d58a"/><rect x="-180" y="60" width="30" height="30" fill="#d9ad4f"/><rect x="-150" y="60" width="30" height="30" fill="#8c1a2b"/><path d="M-145 73h8v-8h4v8h8v4h-8v8h-4v-8h-8z" fill="#f1d58a"/><rect x="-120" y="60" width="30" height="30" fill="#d9ad4f"/><rect x="-90" y="60" width="30" height="30" fill="#8c1a2b"/><path d="M-85 73h8v-8h4v8h8v4h-8v8h-4v-8h-8z" fill="#f1d58a"/><rect x="-60" y="60" width="30" height="30" fill="#d9ad4f"/><rect x="-30" y="60" width="30" height="30" fill="#8c1a2b"/><path d="M-25 73h8v-8h4v8h8v4h-8v8h-4v-8h-8z" fill="#f1d58a"/><rect x="0" y="60" width="30" height="30" fill="#d9ad4f"/><rect x="30" y="60" width="30" height="30" fill="#8c1a2b"/><path d="M35 73h8v-8h4v8h8v4h-8v8h-4v-8h-8z" fill="#f1d58a"/><rect x="60" y="60" width="30" height="30" fill="#d9ad4f"/><rect x="90" y="60" width="30" height="30" fill="#8c1a2b"/><path d="M95 73h8v-8h4v8h8v4h-8v8h-4v-8h-8z" fill="#f1d58a"/><rect x="120" y="60" width="30" height="30" fill="#d9ad4f"/><rect x="150" y="60" width="30" height="30" fill="#8c1a2b"/><path d="M155 73h8v-8h4v8h8v4h-8v8h-4v-8h-8z" fill="#f1d58a"/><rect x="180" y="60" width="30" height="30" fill="#d9ad4f"/><rect x="210" y="60" width="30" height="30" fill="#8c1a2b"/><path d="M215 73h8v-8h4v8h8v4h-8v8h-4v-8h-8z" fill="#f1d58a"/><rect x="240" y="60" width="30" height="30" fill="#d9ad4f"/><rect x="270" y="60" width="30" height="30" fill="#8c1a2b"/><path d="M275 73h8v-8h4v8h8v4h-8v8h-4v-8h-8z" fill="#f1d58a"/><rect x="-240" y="90" width="30" height="30" fill="#8c1a2b"/><path d="M-235 103h8v-8h4v8h8v4h-8v8h-4v-8h-8z" fill="#f1d58a"/><rect x="-210" y="90" width="30" height="30" fill="#d9ad4f"/><rect x="-180" y="90" width="30" height="30" fill="#8c1a2b"/><path d="M-175 103h8v-8h4v8h8v4h-8v8h-4v-8h-8z" fill="#f1d58a"/><rect x="-150" y="90" width="30" height="30" fill="#d9ad4f"/><rect x="-120" y="90" width="30" height="30" fill="#8c1a2b"/><path d="M-115 103h8v-8h4v8h8v4h-8v8h-4v-8h-8z" fill="#f1d58a"/><rect x="-90" y="90" width="30" height="30" fill="#d9ad4f"/><rect x="-60" y="90" width="30" height="30" fill="#8c1a2b"/><path d="M-55 103h8v-8h4v8h8v4h-8v8h-4v-8h-8z" fill="#f1d58a"/><rect x="-30" y="90" width="30" height="30" fill="#d9ad4f"/><rect x="0" y="90" width="30" height="30" fill="#8c1a2b"/><path d="M5 103h8v-8h4v8h8v4h-8v8h-4v-8h-8z" fill="#f1d58a"/><rect x="30" y="90" width="30" height="30" fill="#d9ad4f"/><rect x="60" y="90" width="30" height="30" fill="#8c1a2b"/><path d="M65 103h8v-8h4v8h8v4h-8v8h-4v-8h-8z" fill="#f1d58a"/><rect x="90" y="90" width="30" height="30" fill="#d9ad4f"/><rect x="120" y="90" width="30" height="30" fill="#8c1a2b"/><path d="M125 103h8v-8h4v8h8v4h-8v8h-4v-8h-8z" fill="#f1d58a"/><rect x="150" y="90" width="30" height="30" fill="#d9ad4f"/><rect x="180" y="90" width="30" height="30" fill="#8c1a2b"/><path d="M185 103h8v-8h4v8h8v4h-8v8h-4v-8h-8z" fill="#f1d58a"/><rect x="210" y="90" width="30" height="30" fill="#d9ad4f"/><rect x="240" y="90" width="30" height="30" fill="#8c1a2b"/><path d="M245 103h8v-8h4v8h8v4h-8v8h-4v-8h-8z" fill="#f1d58a"/><rect x="270" y="90" width="30" height="30" fill="#d9ad4f"/><rect x="-240" y="120" width="30" height="30" fill="#d9ad4f"/><rect x="-210" y="120" width="30" height="30" fill="#8c1a2b"/><path d="M-205 133h8v-8h4v8h8v4h-8v8h-4v-8h-8z" fill="#f1d58a"/><rect x="-180" y="120" width="30" height="30" fill="#d9ad4f"/><rect x="-150" y="120" width="30" height="30" fill="#8c1a2b"/><path d="M-145 133h8v-8h4v8h8v4h-8v8h-4v-8h-8z" fill="#f1d58a"/><rect x="-120" y="120" width="30" height="30" fill="#d9ad4f"/><rect x="-90" y="120" width="30" height="30" fill="#8c1a2b"/><path d="M-85 133h8v-8h4v8h8v4h-8v8h-4v-8h-8z" fill="#f1d58a"/><rect x="-60" y="120" width="30" height="30" fill="#d9ad4f"/><rect x="-30" y="120" width="30" height="30" fill="#8c1a2b"/><path d="M-25 133h8v-8h4v8h8v4h-8v8h-4v-8h-8z" fill="#f1d58a"/><rect x="0" y="120" width="30" height="30" fill="#d9ad4f"/><rect x="30" y="120" width="30" height="30" fill="#8c1a2b"/><path d="M35 133h8v-8h4v8h8v4h-8v8h-4v-8h-8z" fill="#f1d58a"/><rect x="60" y="120" width="30" height="30" fill="#d9ad4f"/><rect x="90" y="120" width="30" height="30" fill="#8c1a2b"/><path d="M95 133h8v-8h4v8h8v4h-8v8h-4v-8h-8z" fill="#f1d58a"/><rect x="120" y="120" width="30" height="30" fill="#d9ad4f"/><rect x="150" y="120" width="30" height="30" fill="#8c1a2b"/><path d="M155 133h8v-8h4v8h8v4h-8v8h-4v-8h-8z" fill="#f1d58a"/><rect x="180" y="120" width="30" height="30" fill="#d9ad4f"/><rect x="210" y="120" width="30" height="30" fill="#8c1a2b"/><path d="M215 133h8v-8h4v8h8v4h-8v8h-4v-8h-8z" fill="#f1d58a"/><rect x="240" y="120" width="30" height="30" fill="#d9ad4f"/><rect x="270" y="120" width="30" height="30" fill="#8c1a2b"/><path d="M275 133h8v-8h4v8h8v4h-8v8h-4v-8h-8z" fill="#f1d58a"/><rect x="-240" y="150" width="30" height="30" fill="#8c1a2b"/><path d="M-235 163h8v-8h4v8h8v4h-8v8h-4v-8h-8z" fill="#f1d58a"/><rect x="-210" y="150" width="30" height="30" fill="#d9ad4f"/><rect x="-180" y="150" width="30" height="30" fill="#8c1a2b"/><path d="M-175 163h8v-8h4v8h8v4h-8v8h-4v-8h-8z" fill="#f1d58a"/><rect x="-150" y="150" width="30" height="30" fill="#d9ad4f"/><rect x="-120" y="150" width="30" height="30" fill="#8c1a2b"/><path d="M-115 163h8v-8h4v8h8v4h-8v8h-4v-8h-8z" fill="#f1d58a"/><rect x="-90" y="150" width="30" height="30" fill="#d9ad4f"/><rect x="-60" y="150" width="30" height="30" fill="#8c1a2b"/><path d="M-55 163h8v-8h4v8h8v4h-8v8h-4v-8h-8z" fill="#f1d58a"/><rect x="-30" y="150" width="30" height="30" fill="#d9ad4f"/><rect x="0" y="150" width="30" height="30" fill="#8c1a2b"/><path d="M5 163h8v-8h4v8h8v4h-8v8h-4v-8h-8z" fill="#f1d58a"/><rect x="30" y="150" width="30" height="30" fill="#d9ad4f"/><rect x="60" y="150" width="30" height="30" fill="#8c1a2b"/><path d="M65 163h8v-8h4v8h8v4h-8v8h-4v-8h-8z" fill="#f1d58a"/><rect x="90" y="150" width="30" height="30" fill="#d9ad4f"/><rect x="120" y="150" width="30" height="30" fill="#8c1a2b"/><path d="M125 163h8v-8h4v8h8v4h-8v8h-4v-8h-8z" fill="#f1d58a"/><rect x="150" y="150" width="30" height="30" fill="#d9ad4f"/><rect x="180" y="150" width="30" height="30" fill="#8c1a2b"/><path d="M185 163h8v-8h4v8h8v4h-8v8h-4v-8h-8z" fill="#f1d58a"/><rect x="210" y="150" width="30" height="30" fill="#d9ad4f"/><rect x="240" y="150" width="30" height="30" fill="#8c1a2b"/><path d="M245 163h8v-8h4v8h8v4h-8v8h-4v-8h-8z" fill="#f1d58a"/><rect x="270" y="150" width="30" height="30" fill="#d9ad4f"/><rect x="-240" y="180" width="30" height="30" fill="#d9ad4f"/><rect x="-210" y="180" width="30" height="30" fill="#8c1a2b"/><path d="M-205 193h8v-8h4v8h8v4h-8v8h-4v-8h-8z" fill="#f1d58a"/><rect x="-180" y="180" width="30" height="30" fill="#d9ad4f"/><rect x="-150" y="180" width="30" height="30" fill="#8c1a2b"/><path d="M-145 193h8v-8h4v8h8v4h-8v8h-4v-8h-8z" fill="#f1d58a"/><rect x="-120" y="180" width="30" height="30" fill="#d9ad4f"/><rect x="-90" y="180" width="30" height="30" fill="#8c1a2b"/><path d="M-85 193h8v-8h4v8h8v4h-8v8h-4v-8h-8z" fill="#f1d58a"/><rect x="-60" y="180" width="30" height="30" fill="#d9ad4f"/><rect x="-30" y="180" width="30" height="30" fill="#8c1a2b"/><path d="M-25 193h8v-8h4v8h8v4h-8v8h-4v-8h-8z" fill="#f1d58a"/><rect x="0" y="180" width="30" height="30" fill="#d9ad4f"/><rect x="30" y="180" width="30" height="30" fill="#8c1a2b"/><path d="M35 193h8v-8h4v8h8v4h-8v8h-4v-8h-8z" fill="#f1d58a"/><rect x="60" y="180" width="30" height="30" fill="#d9ad4f"/><rect x="90" y="180" width="30" height="30" fill="#8c1a2b"/><path d="M95 193h8v-8h4v8h8v4h-8v8h-4v-8h-8z" fill="#f1d58a"/><rect x="120" y="180" width="30" height="30" fill="#d9ad4f"/><rect x="150" y="180" width="30" height="30" fill="#8c1a2b"/><path d="M155 193h8v-8h4v8h8v4h-8v8h-4v-8h-8z" fill="#f1d58a"/><rect x="180" y="180" width="30" height="30" fill="#d9ad4f"/><rect x="210" y="180" width="30" height="30" fill="#8c1a2b"/><path d="M215 193h8v-8h4v8h8v4h-8v8h-4v-8h-8z" fill="#f1d58a"/><rect x="240" y="180" width="30" height="30" fill="#d9ad4f"/><rect x="270" y="180" width="30" height="30" fill="#8c1a2b"/><path d="M275 193h8v-8h4v8h8v4h-8v8h-4v-8h-8z" fill="#f1d58a"/><rect x="-240" y="210" width="30" height="30" fill="#8c1a2b"/><path d="M-235 223h8v-8h4v8h8v4h-8v8h-4v-8h-8z" fill="#f1d58a"/><rect x="-210" y="210" width="30" height="30" fill="#d9ad4f"/><rect x="-180" y="210" width="30" height="30" fill="#8c1a2b"/><path d="M-175 223h8v-8h4v8h8v4h-8v8h-4v-8h-8z" fill="#f1d58a"/><rect x="-150" y="210" width="30" height="30" fill="#d9ad4f"/><rect x="-120" y="210" width="30" height="30" fill="#8c1a2b"/><path d="M-115 223h8v-8h4v8h8v4h-8v8h-4v-8h-8z" fill="#f1d58a"/><rect x="-90" y="210" width="30" height="30" fill="#d9ad4f"/><rect x="-60" y="210" width="30" height="30" fill="#8c1a2b"/><path d="M-55 223h8v-8h4v8h8v4h-8v8h-4v-8h-8z" fill="#f1d58a"/><rect x="-30" y="210" width="30" height="30" fill="#d9ad4f"/><rect x="0" y="210" width="30" height="30" fill="#8c1a2b"/><path d="M5 223h8v-8h4v8h8v4h-8v8h-4v-8h-8z" fill="#f1d58a"/><rect x="30" y="210" width="30" height="30" fill="#d9ad4f"/><rect x="60" y="210" width="30" height="30" fill="#8c1a2b"/><path d="M65 223h8v-8h4v8h8v4h-8v8h-4v-8h-8z" fill="#f1d58a"/><rect x="90" y="210" width="30" height="30" fill="#d9ad4f"/><rect x="120" y="210" width="30" height="30" fill="#8c1a2b"/><path d="M125 223h8v-8h4v8h8v4h-8v8h-4v-8h-8z" fill="#f1d58a"/><rect x="150" y="210" width="30" height="30" fill="#d9ad4f"/><rect x="180" y="210" width="30" height="30" fill="#8c1a2b"/><path d="M185 223h8v-8h4v8h8v4h-8v8h-4v-8h-8z" fill="#f1d58a"/><rect x="210" y="210" width="30" height="30" fill="#d9ad4f"/><rect x="240" y="210" width="30" height="30" fill="#8c1a2b"/><path d="M245 223h8v-8h4v8h8v4h-8v8h-4v-8h-8z" fill="#f1d58a"/><rect x="270" y="210" width="30" height="30" fill="#d9ad4f"/><rect x="-240" y="240" width="30" height="30" fill="#d9ad4f"/><rect x="-210" y="240" width="30" height="30" fill="#8c1a2b"/><path d="M-205 253h8v-8h4v8h8v4h-8v8h-4v-8h-8z" fill="#f1d58a"/><rect x="-180" y="240" width="30" height="30" fill="#d9ad4f"/><rect x="-150" y="240" width="30" height="30" fill="#8c1a2b"/><path d="M-145 253h8v-8h4v8h8v4h-8v8h-4v-8h-8z" fill="#f1d58a"/><rect x="-120" y="240" width="30" height="30" fill="#d9ad4f"/><rect x="-90" y="240" width="30" height="30" fill="#8c1a2b"/><path d="M-85 253h8v-8h4v8h8v4h-8v8h-4v-8h-8z" fill="#f1d58a"/><rect x="-60" y="240" width="30" height="30" fill="#d9ad4f"/><rect x="-30" y="240" width="30" height="30" fill="#8c1a2b"/><path d="M-25 253h8v-8h4v8h8v4h-8v8h-4v-8h-8z" fill="#f1d58a"/><rect x="0" y="240" width="30" height="30" fill="#d9ad4f"/><rect x="30" y="240" width="30" height="30" fill="#8c1a2b"/><path d="M35 253h8v-8h4v8h8v4h-8v8h-4v-8h-8z" fill="#f1d58a"/><rect x="60" y="240" width="30" height="30" fill="#d9ad4f"/><rect x="90" y="240" width="30" height="30" fill="#8c1a2b"/><path d="M95 253h8v-8h4v8h8v4h-8v8h-4v-8h-8z" fill="#f1d58a"/><rect x="120" y="240" width="30" height="30" fill="#d9ad4f"/><rect x="150" y="240" width="30" height="30" fill="#8c1a2b"/><path d="M155 253h8v-8h4v8h8v4h-8v8h-4v-8h-8z" fill="#f1d58a"/><rect x="180" y="240" width="30" height="30" fill="#d9ad4f"/><rect x="210" y="240" width="30" height="30" fill="#8c1a2b"/><path d="M215 253h8v-8h4v8h8v4h-8v8h-4v-8h-8z" fill="#f1d58a"/><rect x="240" y="240" width="30" height="30" fill="#d9ad4f"/><rect x="270" y="240" width="30" height="30" fill="#8c1a2b"/><path d="M275 253h8v-8h4v8h8v4h-8v8h-4v-8h-8z" fill="#f1d58a"/><rect x="-240" y="270" width="30" height="30" fill="#8c1a2b"/><path d="M-235 283h8v-8h4v8h8v4h-8v8h-4v-8h-8z" fill="#f1d58a"/><rect x="-210" y="270" width="30" height="30" fill="#d9ad4f"/><rect x="-180" y="270" width="30" height="30" fill="#8c1a2b"/><path d="M-175 283h8v-8h4v8h8v4h-8v8h-4v-8h-8z" fill="#f1d58a"/><rect x="-150" y="270" width="30" height="30" fill="#d9ad4f"/><rect x="-120" y="270" width="30" height="30" fill="#8c1a2b"/><path d="M-115 283h8v-8h4v8h8v4h-8v8h-4v-8h-8z" fill="#f1d58a"/><rect x="-90" y="270" width="30" height="30" fill="#d9ad4f"/><rect x="-60" y="270" width="30" height="30" fill="#8c1a2b"/><path d="M-55 283h8v-8h4v8h8v4h-8v8h-4v-8h-8z" fill="#f1d58a"/><rect x="-30" y="270" width="30" height="30" fill="#d9ad4f"/><rect x="0" y="270" width="30" height="30" fill="#8c1a2b"/><path d="M5 283h8v-8h4v8h8v4h-8v8h-4v-8h-8z" fill="#f1d58a"/><rect x="30" y="270" width="30" height="30" fill="#d9ad4f"/><rect x="60" y="270" width="30" height="30" fill="#8c1a2b"/><path d="M65 283h8v-8h4v8h8v4h-8v8h-4v-8h-8z" fill="#f1d58a"/><rect x="90" y="270" width="30" height="30" fill="#d9ad4f"/><rect x="120" y="270" width="30" height="30" fill="#8c1a2b"/><path d="M125 283h8v-8h4v8h8v4h-8v8h-4v-8h-8z" fill="#f1d58a"/><rect x="150" y="270" width="30" height="30" fill="#d9ad4f"/><rect x="180" y="270" width="30" height="30" fill="#8c1a2b"/><path d="M185 283h8v-8h4v8h8v4h-8v8h-4v-8h-8z" fill="#f1d58a"/><rect x="210" y="270" width="30" height="30" fill="#d9ad4f"/><rect x="240" y="270" width="30" height="30" fill="#8c1a2b"/><path d="M245 283h8v-8h4v8h8v4h-8v8h-4v-8h-8z" fill="#f1d58a"/><rect x="270" y="270" width="30" height="30" fill="#d9ad4f"/><rect x="-240" y="300" width="30" height="30" fill="#d9ad4f"/><rect x="-210" y="300" width="30" height="30" fill="#8c1a2b"/><path d="M-205 313h8v-8h4v8h8v4h-8v8h-4v-8h-8z" fill="#f1d58a"/><rect x="-180" y="300" width="30" height="30" fill="#d9ad4f"/><rect x="-150" y="300" width="30" height="30" fill="#8c1a2b"/><path d="M-145 313h8v-8h4v8h8v4h-8v8h-4v-8h-8z" fill="#f1d58a"/><rect x="-120" y="300" width="30" height="30" fill="#d9ad4f"/><rect x="-90" y="300" width="30" height="30" fill="#8c1a2b"/><path d="M-85 313h8v-8h4v8h8v4h-8v8h-4v-8h-8z" fill="#f1d58a"/><rect x="-60" y="300" width="30" height="30" fill="#d9ad4f"/><rect x="-30" y="300" width="30" height="30" fill="#8c1a2b"/><path d="M-25 313h8v-8h4v8h8v4h-8v8h-4v-8h-8z" fill="#f1d58a"/><rect x="0" y="300" width="30" height="30" fill="#d9ad4f"/><rect x="30" y="300" width="30" height="30" fill="#8c1a2b"/><path d="M35 313h8v-8h4v8h8v4h-8v8h-4v-8h-8z" fill="#f1d58a"/><rect x="60" y="300" width="30" height="30" fill="#d9ad4f"/><rect x="90" y="300" width="30" height="30" fill="#8c1a2b"/><path d="M95 313h8v-8h4v8h8v4h-8v8h-4v-8h-8z" fill="#f1d58a"/><rect x="120" y="300" width="30" height="30" fill="#d9ad4f"/><rect x="150" y="300" width="30" height="30" fill="#8c1a2b"/><path d="M155 313h8v-8h4v8h8v4h-8v8h-4v-8h-8z" fill="#f1d58a"/><rect x="180" y="300" width="30" height="30" fill="#d9ad4f"/><rect x="210" y="300" width="30" height="30" fill="#8c1a2b"/><path d="M215 313h8v-8h4v8h8v4h-8v8h-4v-8h-8z" fill="#f1d58a"/><rect x="240" y="300" width="30" height="30" fill="#d9ad4f"/><rect x="270" y="300" width="30" height="30" fill="#8c1a2b"/><path d="M275 313h8v-8h4v8h8v4h-8v8h-4v-8h-8z" fill="#f1d58a"/><rect x="-240" y="330" width="30" height="30" fill="#8c1a2b"/><path d="M-235 343h8v-8h4v8h8v4h-8v8h-4v-8h-8z" fill="#f1d58a"/><rect x="-210" y="330" width="30" height="30" fill="#d9ad4f"/><rect x="-180" y="330" width="30" height="30" fill="#8c1a2b"/><path d="M-175 343h8v-8h4v8h8v4h-8v8h-4v-8h-8z" fill="#f1d58a"/><rect x="-150" y="330" width="30" height="30" fill="#d9ad4f"/><rect x="-120" y="330" width="30" height="30" fill="#8c1a2b"/><path d="M-115 343h8v-8h4v8h8v4h-8v8h-4v-8h-8z" fill="#f1d58a"/><rect x="-90" y="330" width="30" height="30" fill="#d9ad4f"/><rect x="-60" y="330" width="30" height="30" fill="#8c1a2b"/><path d="M-55 343h8v-8h4v8h8v4h-8v8h-4v-8h-8z" fill="#f1d58a"/><rect x="-30" y="330" width="30" height="30" fill="#d9ad4f"/><rect x="0" y="330" width="30" height="30" fill="#8c1a2b"/><path d="M5 343h8v-8h4v8h8v4h-8v8h-4v-8h-8z" fill="#f1d58a"/><rect x="30" y="330" width="30" height="30" fill="#d9ad4f"/><rect x="60" y="330" width="30" height="30" fill="#8c1a2b"/><path d="M65 343h8v-8h4v8h8v4h-8v8h-4v-8h-8z" fill="#f1d58a"/><rect x="90" y="330" width="30" height="30" fill="#d9ad4f"/><rect x="120" y="330" width="30" height="30" fill="#8c1a2b"/><path d="M125 343h8v-8h4v8h8v4h-8v8h-4v-8h-8z" fill="#f1d58a"/><rect x="150" y="330" width="30" height="30" fill="#d9ad4f"/><rect x="180" y="330" width="30" height="30" fill="#8c1a2b"/><path d="M185 343h8v-8h4v8h8v4h-8v8h-4v-8h-8z" fill="#f1d58a"/><rect x="210" y="330" width="30" height="30" fill="#d9ad4f"/><rect x="240" y="330" width="30" height="30" fill="#8c1a2b"/><path d="M245 343h8v-8h4v8h8v4h-8v8h-4v-8h-8z" fill="#f1d58a"/><rect x="270" y="330" width="30" height="30" fill="#d9ad4f"/></g></svg>